<?xml version="1.0" encoding="UTF-8"?>
<svg version="1.1" xmlns="http://www.w3.org/2000/svg" width="225" height="225">
<path d="M0 0 C74.25 0 148.5 0 225 0 C225 74.25 225 148.5 225 225 C150.75 225 76.5 225 0 225 C0 150.75 0 76.5 0 0 Z " fill="#FEFEFE" transform="translate(0,0)"/>
<path d="M0 0 C1.28382797 3.8514839 0.28477062 6.39408952 -0.81420898 10.14599609 C-1.01888794 10.8699205 -1.22356689 11.59384491 -1.43444824 12.33970642 C-1.88028894 13.91224064 -2.3301007 15.48365311 -2.78338432 17.05405807 C-3.50095939 19.54029586 -4.20821098 22.02926498 -4.91285706 24.51919556 C-6.41154052 29.80720184 -7.92420506 35.09116033 -9.4375 40.375 C-11.18720519 46.49091781 -12.93118496 52.60840433 -14.66523933 58.72877884 C-15.36210551 61.17933007 -16.06709184 63.62744678 -16.77256775 66.07553101 C-17.20087 67.58199017 -17.62883109 69.08854638 -18.05639648 70.59521484 C-18.25433304 71.27383072 -18.45226959 71.95244659 -18.65620422 72.65162659 C-19.65116613 76.1904095 -20.21932771 79.32176327 -20 83 C-13.1683771 85.65159346 -6.3364795 88.30247819 0.49560547 90.95288086 C2.81760825 91.853761 5.13954914 92.75480067 7.46142578 93.65600586 C10.80745266 94.95468882 14.15370498 96.25278938 17.5 97.55078125 C18.5305249 97.9508992 19.5610498 98.35101715 20.62280273 98.76325989 C26.0698942 100.87544022 31.52502685 102.96114281 37 105 C37 105.66 37 106.32 37 107 C35.49609375 108.4453125 35.49609375 108.4453125 33.4375 110.125 C29.68243387 113.29312862 26.54734343 116.69430236 23.4453125 120.49609375 C22.96835938 120.99238281 22.49140625 121.48867187 22 122 C21.34 122 20.68 122 20 122 C20 122.66 20 123.32 20 124 C19.34 124 18.68 124 18 124 C18 124.66 18 125.32 18 126 C17.34 126 16.68 126 16 126 C15.505 127.485 15.505 127.485 15 129 C14.34 129 13.68 129 13 129 C13 129.66 13 130.32 13 131 C12.34 131 11.68 131 11 131 C11 131.66 11 132.32 11 133 C10.34 133 9.68 133 9 133 C9 133.66 9 134.32 9 135 C8.34 135 7.68 135 7 135 C7 135.66 7 136.32 7 137 C6.34 137 5.68 137 5 137 C3.78196716 135.76196289 3.78196716 135.76196289 2.27905273 133.91015625 C-3.56916392 127.04071795 -10.0776438 120.79963469 -16.46484375 114.4375 C-17.86753391 113.03667785 -19.27000128 111.63563257 -20.67225647 110.234375 C-24.3409754 106.56945113 -28.01268878 102.90754192 -31.68505859 99.24627686 C-35.44095978 95.50065494 -39.19398711 91.75215587 -42.94726562 88.00390625 C-50.29538554 80.66647047 -57.6466758 73.33221995 -65 66 C-61.14902009 61.39590367 -57.16072823 57.01832588 -52.90283203 52.78930664 C-52.32649521 52.21282379 -51.75015839 51.63634094 -51.15635681 51.04238892 C-49.27587265 49.16259405 -47.39188591 47.28635307 -45.5078125 45.41015625 C-44.19337426 44.09758569 -42.87915856 42.78479224 -41.56515503 41.4717865 C-38.12493488 38.03536398 -34.68172107 34.60195663 -31.237854 31.16918945 C-27.71663589 27.65824499 -24.19828651 24.1444283 -20.6796875 20.63085938 C-13.78924732 13.75110788 -6.89563795 6.87454145 0 0 Z " fill="#FE4C00" transform="translate(106,47)"/>
<path d="M0 0 C1.1725131 0.95117134 2.33787015 1.91117009 3.5 2.875 C4.1496875 3.40867188 4.799375 3.94234375 5.46875 4.4921875 C6.22671875 5.23855469 6.22671875 5.23855469 7 6 C7 6.66 7 7.32 7 8 C7.99 8.33 8.98 8.66 10 9 C10 9.66 10 10.32 10 11 C10.66 11 11.32 11 12 11 C12 11.66 12 12.32 12 13 C12.66 13 13.32 13 14 13 C14 13.66 14 14.32 14 15 C14.66 15 15.32 15 16 15 C17.48046875 16.50390625 17.48046875 16.50390625 19.1875 18.5625 C24.85095856 25.6578539 24.85095856 25.6578539 32 31 C32 31.66 32 32.32 32 33 C32.66 33 33.32 33 34 33 C34 33.66 34 34.32 34 35 C34.99 35.33 35.98 35.66 37 36 C37 36.66 37 37.32 37 38 C37.66 38 38.32 38 39 38 C39 38.66 39 39.32 39 40 C39.66 40 40.32 40 41 40 C41 40.66 41 41.32 41 42 C41.66 42 42.32 42 43 42 C43 42.66 43 43.32 43 44 C43.99 44.33 44.98 44.66 46 45 C47.49243164 46.51367188 47.49243164 46.51367188 49.09765625 48.46875 C53.29042811 53.41050689 57.83323575 57.94396736 62.4375 62.5 C63.67790039 63.73363281 63.67790039 63.73363281 64.94335938 64.9921875 C66.95994959 66.99712113 68.97885236 68.99966253 71 71 C67.0525084 75.73500338 62.93352637 80.19444564 58.54296875 84.51953125 C57.66032097 85.3964991 57.66032097 85.3964991 56.75984192 86.29118347 C54.9048356 88.13410315 53.04658919 89.97369969 51.1875 91.8125 C48.71979839 94.25365019 46.25540483 96.69807108 43.79296875 99.14453125 C43.22636032 99.70284134 42.65975189 100.26115143 42.07597351 100.83638 C39.17731143 103.6432844 39.17731143 103.6432844 37 107 C33.12061633 106.30233712 30.07421429 104.52178778 26.65234375 102.61328125 C26.04040665 102.27378952 25.42846954 101.93429779 24.79798889 101.58451843 C22.84203966 100.49818724 20.88970962 99.40553466 18.9375 98.3125 C17.65193537 97.5965693 16.36613018 96.88107038 15.08007812 96.16601562 C13.18775993 95.11369988 11.29566671 94.06099989 9.40463257 93.00637817 C3.95590643 89.96837878 -1.51621853 86.97426642 -7 84 C-4.37530609 81.37530609 -2.47652819 81.3211748 1.16015625 80.6328125 C2.42174561 80.38877686 3.68333496 80.14474121 4.9831543 79.89331055 C5.65019379 79.76773773 6.31723328 79.64216492 7.00448608 79.51278687 C10.43062656 78.86720703 13.85185312 78.19658123 17.2734375 77.52734375 C17.94519516 77.39650894 18.61695282 77.26567413 19.30906677 77.13087463 C32.29328152 74.61005419 32.29328152 74.61005419 45 71 C44.41508789 70.85900879 43.83017578 70.71801758 43.22753906 70.57275391 C40.56712242 69.92849196 37.90857292 69.27682642 35.25 68.625 C34.32960937 68.40328125 33.40921875 68.1815625 32.4609375 67.953125 C31.57148438 67.73398438 30.68203125 67.51484375 29.765625 67.2890625 C28.94868164 67.09006348 28.13173828 66.89106445 27.29003906 66.68603516 C24.88725651 65.96622503 23.10397365 65.38045416 21 64 C19.76643372 61.50857544 19.76643372 61.50857544 18.72583008 58.32861328 C18.32894485 57.14042999 17.93205963 55.9522467 17.52314758 54.72805786 C17.10491544 53.42559163 16.68705229 52.12300686 16.26953125 50.8203125 C15.83050796 49.48712008 15.39019687 48.1543511 14.94865417 46.82199097 C13.78981637 43.31297991 12.64936795 39.79824902 11.51239014 36.28210449 C10.35390338 32.71157697 9.17679337 29.14720329 8.00195312 25.58203125 C6.2876285 20.36765952 4.5794626 15.15135896 2.88598633 9.93017578 C2.3744677 8.35370773 2.3744677 8.35370773 1.85261536 6.74539185 C1.15714582 4.50600408 0.53515873 2.28188794 0 0 Z " fill="#FE7C02" transform="translate(112,41)"/>
<path d="M0 0 C0.57927246 0.23485107 1.15854492 0.46970215 1.75537109 0.71166992 C20.74187557 8.3935279 39.85344899 15.72846284 59 23 C59 23.66 59 24.32 59 25 C57.49609375 26.4453125 57.49609375 26.4453125 55.4375 28.125 C51.68243387 31.29312862 48.54734343 34.69430236 45.4453125 38.49609375 C44.96835938 38.99238281 44.49140625 39.48867187 44 40 C43.34 40 42.68 40 42 40 C42 40.66 42 41.32 42 42 C41.34 42 40.68 42 40 42 C40 42.66 40 43.32 40 44 C39.34 44 38.68 44 38 44 C37.67 44.99 37.34 45.98 37 47 C36.34 47 35.68 47 35 47 C35 47.66 35 48.32 35 49 C34.34 49 33.68 49 33 49 C33 49.66 33 50.32 33 51 C32.34 51 31.68 51 31 51 C31 51.66 31 52.32 31 53 C30.34 53 29.68 53 29 53 C29 53.66 29 54.32 29 55 C28.34 55 27.68 55 27 55 C25.73046875 53.68945312 25.73046875 53.68945312 24.1875 51.78125 C20.934298 47.94760117 17.45639032 44.48389383 13.8125 41.03125 C12.6909201 39.95493345 11.56983341 38.87810274 10.44921875 37.80078125 C8.71714473 36.13682527 6.97976429 34.48117518 5.22119141 32.84521484 C3.50122351 31.240451 1.81175698 29.60829591 0.125 27.96875 C-0.67006958 27.24806335 -0.67006958 27.24806335 -1.48120117 26.51281738 C-3.49237495 24.51808418 -4.94550342 22.87923538 -5.12501526 19.98303223 C-4.59513646 15.38652841 -3.25606977 10.92358891 -1.9375 6.5 C-1.57527344 5.2728125 -1.21304688 4.045625 -0.83984375 2.78125 C-0.56269531 1.8634375 -0.28554687 0.945625 0 0 Z " fill="#FE7C01" transform="translate(84,129)"/>
<path d="M0 0 C17.8071615 4.06337913 35.62659321 8.33113406 53 14 C53 14.33 53 14.66 53 15 C46.59647877 16.41088763 40.19173573 17.81612337 33.78613281 19.2175293 C31.60941839 19.69443352 29.43298166 20.1726071 27.25683594 20.65209961 C24.11987169 21.34306406 20.9819207 22.02938226 17.84375 22.71484375 C16.39639465 23.03520851 16.39639465 23.03520851 14.9197998 23.36204529 C9.62003304 24.51448998 4.39331362 25.4201633 -1 26 C-1.09744014 17.27369392 -1.16711095 8.66996704 0 0 Z " fill="#061BFC" transform="translate(106,98)"/>
<path d="M0 0 C1.65213464 3.10682129 2.8308769 6.23474867 3.9453125 9.5703125 C4.29980469 10.63121094 4.65429688 11.69210938 5.01953125 12.78515625 C5.38433594 13.88730469 5.74914062 14.98945313 6.125 16.125 C6.49753906 17.23488281 6.87007812 18.34476563 7.25390625 19.48828125 C7.78177734 21.07576172 7.78177734 21.07576172 8.3203125 22.6953125 C8.64273926 23.66484863 8.96516602 24.63438477 9.29736328 25.63330078 C10 28 10 28 10 30 C5.79983067 28.71479547 2.1474695 27.12260509 -1.66796875 24.953125 C-2.72693359 24.355 -3.78589844 23.756875 -4.87695312 23.140625 C-6.51567383 22.20476562 -6.51567383 22.20476562 -8.1875 21.25 C-10.34732214 20.02545219 -12.50747603 18.8014893 -14.66796875 17.578125 C-16.24070557 16.68577148 -16.24070557 16.68577148 -17.84521484 15.77539062 C-22.53710763 13.13497549 -27.26431446 10.56085255 -32 8 C-29.27272309 5.27272309 -27.01831341 5.22202696 -23.2421875 4.4921875 C-22.57913605 4.36184113 -21.91608459 4.23149475 -21.23294067 4.09719849 C-19.11496214 3.68255853 -16.9950943 3.27866749 -14.875 2.875 C-13.43866476 2.59575753 -12.00246482 2.3158181 -10.56640625 2.03515625 C-7.04580503 1.34867663 -3.52343121 0.67182195 0 0 Z " fill="#FD4D04" transform="translate(137,117)"/>
<path d="M0 0 C5.33970951 1.65715123 10.43691185 3.57555947 15.5625 5.8125 C24.22122063 9.58536302 33.03771995 13.01257332 42 16 C41.3900874 20.98844309 40.36525565 25.60155346 38.9375 30.4375 C38.57527344 31.67371094 38.21304688 32.90992188 37.83984375 34.18359375 C37.56269531 35.11300781 37.28554687 36.04242188 37 37 C32.02426582 32.82717654 27.33695213 28.48472573 22.75390625 23.88671875 C22.09792953 23.23169876 21.44195282 22.57667877 20.76609802 21.90180969 C19.39435098 20.53073805 18.0238454 19.15842327 16.65454102 17.78491211 C14.54752743 15.67248899 12.43515974 13.56552392 10.32226562 11.45898438 C8.98665795 10.12271682 7.65136001 8.78613959 6.31640625 7.44921875 C5.68215225 6.81698898 5.04789825 6.18475922 4.39442444 5.53337097 C0 1.11498244 0 1.11498244 0 0 Z " fill="#E23200" transform="translate(42,113)"/>
</svg>
